# xmcd CD database file
#
# Track frame offsets:
#	150
#	20874
#	43513
#	61205
#	84373
#	105331
#	125758
#	143492
#	168145
#	187159
#	210586
#
# Disc length: 3059 seconds
#
# Revision: 0
# Processed by: cddbd v1.4PL0 Copyright (c) Steve Scherf et al.
# Submitted via: CDex 1.50beta10
#
DISCID=900bf10b
DTITLE=Kay Kay And The Rays - Texas Justice
DYEAR=2001
DGENRE=Blues
TTITLE0=Lone Star Justice
TTITLE1=Hey Big Boy
TTITLE2=Love Me Baby
TTITLE3=Don't Have To Tell Me
TTITLE4=Lord, Save Me From L.A.
TTITLE5=Hold On To What You Got
TTITLE6=Drink And A Friend
TTITLE7=Keep On Running Away
TTITLE8=Double Standard
TTITLE9=My Dream Lover
TTITLE10=Texas Justice - Billy's Story
EXTD=YEAR: 2001
EXTT0=
EXTT1=
EXTT2=
EXTT3=
EXTT4=
EXTT5=
EXTT6=
EXTT7=
EXTT8=
EXTT9=
EXTT10=
PLAYORDER=
